HIERARCHY
ROOT Hips
{
 OFFSET 0.000000 0.000000 0.000000
 CHANNELS 6 Xposition Yposition Zposition Yrotation Xrotation Zrotation
 JOINT Chest
 {
  OFFSET 0.000000 13.173100 -0.061900
  CHANNELS 3 Yrotation Xrotation Zrotation
  JOINT Chest2
  {
   OFFSET 0.000000 8.040800 0.126200
   CHANNELS 3 Yrotation Xrotation Zrotation
   JOINT Chest3
   {
    OFFSET 0.000000 7.994400 0.000000
    CHANNELS 3 Yrotation Xrotation Zrotation
    JOINT Chest4
    {
     OFFSET 0.000000 7.986200 0.000000
     CHANNELS 3 Yrotation Xrotation Zrotation
     JOINT Neck
     {
      OFFSET 0.000000 12.259400 0.000000
      CHANNELS 3 Yrotation Xrotation Zrotation
      JOINT Head
      {
       OFFSET 0.000000 7.518700 0.267100
       CHANNELS 3 Yrotation Xrotation Zrotation
       End Site
       {
        OFFSET 0.000000 13.617700 0.141000
       }
      }
     }
     JOINT RightCollar
     {
      OFFSET -2.983800 8.314300 0.000000
      CHANNELS 3 Yrotation Xrotation Zrotation
      JOINT RightShoulder
      {
       OFFSET -16.133400 0.000000 0.000000
       CHANNELS 3 Yrotation Xrotation Zrotation
       JOINT RightElbow
       {
        OFFSET 0.000000 -29.822100 0.000000
        CHANNELS 3 Yrotation Xrotation Zrotation
        JOINT RightWrist
        {
         OFFSET 0.000000 -24.437700 0.010900
         CHANNELS 3 Yrotation Xrotation Zrotation
         End Site
         {
          OFFSET 0.000000 -18.312300 0.000000
         }
        }
       }
      }
     }
     JOINT LeftCollar
     {
      OFFSET 2.983800 8.314300 0.000000
      CHANNELS 3 Yrotation Xrotation Zrotation
      JOINT LeftShoulder
      {
       OFFSET 16.133400 0.000000 0.000000
       CHANNELS 3 Yrotation Xrotation Zrotation
       JOINT LeftElbow
       {
        OFFSET 0.000000 -29.822100 0.000000
        CHANNELS 3 Yrotation Xrotation Zrotation
        JOINT LeftWrist
        {
         OFFSET 0.000000 -24.437700 0.010900
         CHANNELS 3 Yrotation Xrotation Zrotation
         End Site
         {
          OFFSET 0.000000 -18.312300 0.000000
         }
        }
       }
      }
     }
    }
   }
  }
 }
 JOINT RightHip
 {
  OFFSET -11.206700 0.306200 0.030900
  CHANNELS 3 Yrotation Xrotation Zrotation
  JOINT RightKnee
  {
   OFFSET 0.000000 -57.334900 0.009400
   CHANNELS 3 Yrotation Xrotation Zrotation
   JOINT RightAnkle
   {
    OFFSET 0.000000 -43.376200 0.036600
    CHANNELS 3 Yrotation Xrotation Zrotation
    JOINT RightToe
    {
     OFFSET 0.000000 -10.035500 18.363100
     CHANNELS 3 Yrotation Xrotation Zrotation
     End Site
     {
      OFFSET 0.000000 -1.618500 7.239000
     }
    }
   }
  }
 }
 JOINT LeftHip
 {
  OFFSET 11.206700 0.306200 0.030900
  CHANNELS 3 Yrotation Xrotation Zrotation
  JOINT LeftKnee
  {
   OFFSET 0.000000 -57.334900 0.009400
   CHANNELS 3 Yrotation Xrotation Zrotation
   JOINT LeftAnkle
   {
    OFFSET 0.000000 -43.376200 0.036600
    CHANNELS 3 Yrotation Xrotation Zrotation
    JOINT LeftToe
    {
     OFFSET 0.000000 -10.035500 18.363100
     CHANNELS 3 Yrotation Xrotation Zrotation
     End Site
     {
      OFFSET 0.000000 -1.618500 7.239000
     }
    }
   }
  }
 }
}
MOTION
Frames: 15
Frame Time: 0.008333
0.000000 110.232800 0.000000 0.000000 -5.767877 0.000000 0.000000 11.653817 0.000000 0.000000 -5.885947 0.000000 0.000000 -0.000000 0.000000 0.000000 -0.000000 0.000000 0.000000 12.528835 0.000000 0.000000 0.711642 0.000000 0.000000 -0.000000 0.000000 0.000000 0.000000 -90.000000 0.000000 -2.309062 0.000000 0.000000 2.309062 0.000000 0.000000 -0.000000 0.000000 0.000000 -0.000000 90.000000 0.000000 -2.309062 0.000000 0.000000 2.309062 0.000000 0.000000 8.520406 0.000000 0.000000 1.905762 0.000000 -0.000000 -4.658285 0.000000 0.000000 -0.000000 0.000000 0.000000 8.520406 0.000000 0.000000 1.905762 0.000000 -0.000000 -4.658285 0.000000 0.000000 -0.000000 0.000000
-77.623392 69.874294 53.564276 -170.674958 -28.193876 -10.514954 -2.545145 13.950772 6.964378 -2.245557 8.334257 1.871117 -2.772342 10.465962 2.304981 -2.246321 8.334493 1.867847 2.845512 18.859411 -2.325399 3.567030 -5.742724 -3.141911 5.104123 0.221763 -2.985814 -3.808179 -16.599636 -1.164454 68.618588 -44.216022 -51.315432 5.447200 2.631289 -15.799484 -10.640729 -1.268517 -6.092229 -7.587781 -19.642799 3.641059 -61.362602 -32.357104 56.003195 2.292422 -2.451630 -0.233764 -25.240194 -29.222886 4.840289 58.361980 86.617944 55.856646 1.412666 -27.619071 -3.604916 -1.365578 2.861864 -0.739178 -15.227571 -47.613030 8.666499 179.382538 74.238909 177.545652 -2.362230 -24.434938 1.328329 -0.191938 -0.909401 -0.106160
-77.628981 69.893624 53.562330 -170.674914 -28.103690 -10.474363 -2.570654 13.922598 6.943632 -2.248362 8.348676 1.883809 -2.774310 10.446587 2.309041 -2.248305 8.348689 1.883828 2.853891 18.842391 -2.338636 3.579852 -5.743469 -3.147906 5.101620 0.214074 -2.998279 -3.840987 -16.554784 -1.178953 68.748416 -44.300163 -51.448632 5.436075 2.634195 -15.820716 -10.637960 -1.282171 -6.101688 -7.547239 -19.606317 3.628080 -61.403031 -32.424188 56.088821 2.290099 -2.474936 -0.217814 -25.283038 -29.325427 4.828871 58.748815 86.631241 56.266700 1.426873 -27.654195 -3.656325 -1.335282 2.868377 -0.723122 -15.197318 -47.709321 8.615170 179.343523 74.246092 177.522109 -2.361028 -24.438352 1.331248 -0.193727 -0.900305 -0.106527
-77.628070 69.920978 53.551415 -170.691016 -28.042946 -10.456714 -2.570926 13.918071 6.951362 -2.251892 8.345706 1.890762 -2.774719 10.430829 2.311266 -2.255211 8.357898 1.897493 2.862597 18.821663 -2.360689 3.601883 -5.709566 -3.132457 5.105791 0.223632 -2.999626 -3.865381 -16.509097 -1.195223 68.849005 -44.398094 -51.568646 5.472401 2.649386 -15.840336 -10.633123 -1.219203 -6.088241 -7.514742 -19.631149 3.608244 -61.454289 -32.492532 56.161457 2.294831 -2.480817 -0.186757 -25.303260 -29.385204 4.843573 59.010008 86.642825 56.538341 1.439901 -27.683476 -3.679966 -1.327300 2.867642 -0.719534 -15.173740 -47.764530 8.605293 179.308192 74.241449 177.499716 -2.366372 -24.458090 1.337931 -0.192759 -0.894204 -0.107344
-77.625605 69.951487 53.537059 -170.711725 -27.988241 -10.442118 -2.564788 13.903184 6.959645 -2.255104 8.343074 1.895725 -2.770899 10.403424 2.304514 -2.260628 8.368381 1.907604 2.881412 18.868026 -2.329164 3.617845 -5.706241 -3.145867 5.102926 0.251543 -2.977848 -3.879802 -16.461230 -1.215031 68.953888 -44.464331 -51.691468 5.501975 2.660213 -15.849020 -10.628620 -1.194667 -6.079716 -7.488406 -19.593053 3.603203 -61.479578 -32.555750 56.223799 2.310684 -2.491191 -0.157188 -25.320744 -29.437094 4.862150 59.268646 86.657295 56.808066 1.452515 -27.711965 -3.702180 -1.320144 2.861543 -0.717327 -15.160745 -47.806632 8.612682 179.292465 74.234208 177.487169 -2.374965 -24.490777 1.345609 -0.193865 -0.883513 -0.107058
-77.621923 69.980623 53.525477 -170.726690 -27.911121 -10.429837 -2.566675 13.838853 6.961364 -2.256258 8.342130 1.897284 -2.783988 10.438578 2.325615 -2.265873 8.369226 1.923029 2.903463 18.889371 -2.326446 3.633611 -5.698762 -3.157925 5.116854 0.229500 -3.005575 -3.884812 -16.436692 -1.225498 68.998646 -44.506501 -51.751225 5.481135 2.658932 -15.885057 -10.612675 -1.208190 -6.092633 -7.463600 -19.572410 3.595434 -61.500649 -32.607894 56.250421 2.330876 -2.501487 -0.140387 -25.367176 -29.508271 4.894157 59.570624 86.670649 57.112015 1.477415 -27.742557 -3.731145 -1.316534 2.866413 -0.716442 -15.177258 -47.876756 8.636614 179.298542 74.224911 177.491105 -2.375522 -24.506609 1.348544 -0.192873 -0.883287 -0.107022
-77.618078 70.011023 53.510610 -170.742549 -27.847003 -10.416711 -2.568121 13.826615 6.971042 -2.259392 8.337019 1.904248 -2.798772 10.470211 2.360985 -2.262742 8.330359 1.910246 2.916716 18.888274 -2.343665 3.653267 -5.666505 -3.148375 5.127743 0.212140 -3.032236 -3.888667 -16.412012 -1.235736 69.037656 -44.546003 -51.808456 5.465685 2.651800 -15.912271 -10.599830 -1.229159 -6.111561 -7.427389 -19.522841 3.596038 -61.528467 -32.674095 56.290132 2.334131 -2.517708 -0.126689 -25.410490 -29.567468 4.921783 59.905552 86.684992 57.445026 1.500906 -27.771437 -3.758125 -1.313596 2.867125 -0.716011 -15.194138 -47.930155 8.660963 179.328246 74.215011 177.512881 -2.374643 -24.528959 1.352233 -0.189849 -0.881395 -0.106727
-77.612701 70.040562 53.496003 -170.758863 -27.779988 -10.406600 -2.568004 13.836219 6.994143 -2.259565 8.305038 1.904564 -2.797819 10.441878 2.354121 -2.264409 8.326979 1.913270 2.921270 18.886357 -2.352156 3.677333 -5.613764 -3.117743 5.103972 0.260205 -2.967764 -3.888516 -16.337383 -1.276280 69.213862 -44.585664 -52.007032 5.438491 2.645638 -15.937378 -10.594998 -1.238391 -6.120010 -7.387370 -19.437585 3.612428 -61.590334 -32.730830 56.330229 2.347316 -2.541152 -0.085174 -25.459246 -29.625534 4.955447 60.228305 86.695693 57.762557 1.519899 -27.805019 -3.768367 -1.313739 2.866256 -0.727751 -15.217972 -47.986142 8.692564 179.375139 74.203716 177.551990 -2.368007 -24.551396 1.353301 -0.189816 -0.879645 -0.106511
-77.605136 70.072284 53.476331 -170.772838 -27.737763 -10.407519 -2.562149 13.818554 7.010107 -2.273555 8.357240 1.928563 -2.789250 10.380809 2.337690 -2.266063 8.323382 1.916378 2.944786 18.950977 -2.298991 3.679523 -5.639068 -3.156716 5.094743 0.276027 -2.946446 -3.895648 -16.279479 -1.282027 69.321820 -44.608825 -52.132164 5.364439 2.644194 -15.987850 -10.592159 -1.219377 -6.110761 -7.353582 -19.404526 3.613582 -61.639682 -32.778430 56.366370 2.356520 -2.553445 -0.060215 -25.504696 -29.651818 4.984710 60.537669 86.698851 58.066301 1.552662 -27.836718 -3.794004 -1.322565 2.871850 -0.734260 -15.245191 -48.012196 8.730639 179.435481 74.188307 177.604264 -2.357131 -24.578421 1.352876 -0.196524 -0.879937 -0.106130
-77.594942 70.102491 53.458546 -170.796914 -27.688456 -10.410596 -2.549362 13.872044 7.052235 -2.273394 8.308097 1.926818 -2.791078 10.361360 2.340984 -2.269775 8.316106 1.921739 2.964198 18.974474 -2.283614 3.674399 -5.671048 -3.195221 5.091707 0.276525 -2.944139 -3.887790 -16.261804 -1.298292 69.362626 -44.635905 -52.196710 5.340761 2.641054 -15.999644 -10.583978 -1.220952 -6.113795 -7.320871 -19.371615 3.614898 -61.688747 -32.827593 56.400418 2.370265 -2.574874 -0.022799 -25.541779 -29.684699 5.030664 60.796157 86.703088 58.314179 1.582532 -27.863773 -3.807723 -1.347659 2.870123 -0.739610 -15.279800 -48.046727 8.787992 179.502379 74.170504 177.663021 -2.353075 -24.601029 1.354623 -0.193438 -0.885132 -0.108551
-77.585845 70.124735 53.453878 -170.826523 -27.577314 -10.393879 -2.544377 13.808367 7.066741 -2.276565 8.300292 1.932210 -2.797808 10.353980 2.346677 -2.280076 8.320514 1.941084 2.981031 18.964006 -2.303277 3.712471 -5.612767 -3.151141 5.094073 0.267029 -2.960640 -3.865739 -16.275680 -1.323348 69.351155 -44.661546 -52.207159 5.312180 2.636291 -16.010921 -10.571417 -1.240897 -6.130054 -7.287157 -19.336716 3.615319 -61.735535 -32.867331 56.435096 2.381334 -2.588074 -0.016778 -25.582343 -29.791354 5.091157 61.079077 86.715024 58.596859 1.593078 -27.893007 -3.807101 -1.347079 2.882845 -0.757514 -15.328305 -48.152269 8.845917 179.529999 74.162145 177.681301 -2.347088 -24.617480 1.348071 -0.194536 -0.880085 -0.109666
-77.577442 70.150646 53.441789 -170.837474 -27.503636 -10.385094 -2.548318 13.758469 7.072537 -2.281263 8.316705 1.943589 -2.804502 10.345071 2.353049 -2.276841 8.299924 1.931779 2.985905 18.961007 -2.309735 3.740533 -5.580321 -3.110440 5.077334 0.280297 -2.947292 -3.887841 -16.202818 -1.298661 69.463968 -44.688160 -52.338563 5.318774 2.628273 -16.012575 -10.587425 -1.207987 -6.094901 -7.243500 -19.328329 3.591781 -61.773461 -32.892052 56.467788 2.384652 -2.592580 0.000111 -25.620081 -29.856138 5.118633 61.500902 86.709938 59.040776 1.595310 -27.921645 -3.843154 -1.339286 2.887463 -0.752870 -15.370242 -48.214649 8.884844 179.538564 74.152530 177.681796 -2.345802 -24.636825 1.341812 -0.198039 -0.876680 -0.109681
-77.564569 70.176358 53.430569 -170.862887 -27.429617 -10.386013 -2.534926 13.705669 7.095031 -2.288403 8.333031 1.954639 -2.804699 10.337436 2.360879 -2.286571 8.311211 1.959879 2.998606 18.947201 -2.328566 3.748507 -5.585810 -3.111727 5.068092 0.264562 -2.976070 -3.897128 -16.162689 -1.288881 69.512618 -44.717467 -52.401687 5.272628 2.609068 -16.023059 -10.582131 -1.241339 -6.115904 -7.227676 -19.287680 3.592959 -61.797677 -32.912581 56.495321 2.397856 -2.604593 0.025887 -25.656174 -29.913986 5.172003 61.777826 86.703206 59.320881 1.617032 -27.946734 -3.861237 -1.353410 2.895862 -0.755556 -15.413035 -48.276828 8.951384 179.569894 74.138629 177.706715 -2.344178 -24.655588 1.337001 -0.197027 -0.875724 -0.109485
-77.551671 70.203536 53.416280 -170.893503 -27.375243 -10.385230 -2.518746 13.729925 7.130955 -2.285471 8.280800 1.947626 -2.818403 10.360758 2.386379 -2.270893 8.263708 1.928684 3.010210 18.963354 -2.300518 3.756358 -5.593476 -3.112631 5.045560 0.283342 -2.956857 -3.906166 -16.139271 -1.288051 69.492683 -44.787654 -52.405271 5.294594 2.583881 -16.024670 -10.591200 -1.231848 -6.099106 -7.223527 -19.243699 3.597036 -61.807865 -32.941896 56.526089 2.402204 -2.615251 0.048464 -25.685182 -29.954275 5.227294 61.987525 86.705438 59.519859 1.635696 -27.965955 -3.870329 -1.367467 2.900433 -0.764821 -15.434473 -48.312965 9.008221 179.588235 74.126426 177.719624 -2.348033 -24.691007 1.334281 -0.198813 -0.866944 -0.106953
-77.539226 70.232553 53.398024 -170.914496 -27.342764 -10.389354 -2.509431 13.749946 7.155107 -2.276824 8.236645 1.942754 -2.831753 10.379913 2.399569 -2.274959 8.256288 1.936776 3.026673 18.969975 -2.276744 3.768084 -5.608583 -3.137262 5.046429 0.283086 -2.968306 -3.926337 -16.112481 -1.280480 69.536245 -44.817118 -52.445767 5.315139 2.572016 -16.023605 -10.581010 -1.246684 -6.107201 -7.227534 -19.194187 3.607254 -61.814461 -32.969971 56.549121 2.394094 -2.609384 0.066599 -25.698512 -29.972095 5.266343 62.175904 86.710176 59.707993 1.648367 -27.981703 -3.879731 -1.378716 2.898574 -0.769587 -15.442131 -48.327743 9.044028 179.580600 74.111862 177.717640 -2.351092 -24.720482 1.330450 -0.201672 -0.867244 -0.107154
